<svg width="30" height="47" viewBox="0 0 30 47" fill="none" xmlns="http://www.w3.org/2000/svg">
<path d="M11.1161 0.0282676C11.8965 -0.0763467 12.6934 0.123741 13.4209 0.392895C13.7609 0.518839 17.2804 2.39378 17.5094 2.57863C19.0722 3.83705 18.5903 5.28337 18.2152 6.98565C18.3892 7.48434 24.484 6.80689 26.8749 12.2671C30.0669 11.8212 31.2556 15.9135 28.3248 17.2572C27.2428 25.2282 26.6531 33.2632 25.4997 41.2251C24.9007 43.5988 22.1947 45.9328 19.7386 46.2151C19.2878 46.2669 11.17 46.2669 10.6694 46.2151C7.72207 45.9074 5.02442 43.3844 4.61092 40.4968C3.66922 32.8231 2.72751 25.1496 1.78581 17.4765C1.64072 17.0662 -0.0703028 16.4101 0.00224203 14.7079C0.060278 13.3448 1.58164 11.9625 3.01286 12.3403C5.27833 6.60375 11.6851 7.34215 12.1183 6.98565C12.168 6.94502 12.3224 5.91309 12.4157 5.74754C12.3411 5.46925 9.7668 4.96547 9.14498 3.78017C8.3646 2.29221 9.40508 0.257811 11.1151 0.0282676H11.1161Z" fill="white"/>
<path d="M5.05728 13.8721C11.3407 13.7627 17.8003 13.7813 24.0868 13.8721C24.3594 13.8762 24.6319 13.8659 24.9045 13.8721C25.174 13.8783 25.4548 13.8628 25.7222 13.8721C26.1253 13.8866 26.6114 13.8329 26.9855 13.8721C28.6126 15.2282 27.4187 15.5461 27.2083 15.8712C23.9759 15.6658 4.08621 16.1395 2.90166 15.8712C2.49126 15.7783 2.19175 15.2571 2.23217 14.8722C2.28295 14.3975 2.88922 14.1962 2.90166 13.8731C3.32967 13.8226 3.87687 13.8112 4.31421 13.7988C4.35152 13.7978 4.42717 13.8834 5.05728 13.8731V13.8721Z" fill="#5B3020"/>
<path d="M27.2089 15.8706C27.0473 16.1204 26.8587 16.3619 26.7633 16.6478V18.2021L26.4659 18.3135C26.5032 17.6723 26.5405 17.0307 26.5778 16.3887H3.60908L3.57177 18.2392C3.55 18.2372 3.46502 18.3011 3.12613 18.2392C3.09815 18.1546 3.11888 17.0286 3.05151 16.4631C3.04737 16.43 3.24946 16.4651 2.90332 15.8706C4.08891 16.139 23.9786 15.6653 27.21 15.8706H27.2089Z" fill="#42261D"/>
<path d="M2.90234 13.8721C2.89094 14.1951 2.28363 14.3964 2.23285 14.8711C2.19243 15.256 2.49194 15.7772 2.90234 15.8702C3.24848 16.4646 3.04743 16.4295 3.05054 16.4625C2.88161 16.2355 2.44427 16.2788 2.12093 16.0188C1.51362 15.5295 1.31257 14.0599 2.9013 13.8721H2.90234Z" fill="#352626"/>
<path d="M26.4655 18.3134C20.3769 18.0493 8.87851 18.6964 3.57031 18.2391L3.60762 16.3887H26.5763C26.5391 17.03 26.5017 17.6715 26.4644 18.3134H26.4655Z" fill="#5B3020"/>
<path d="M25.7225 13.8715C25.455 13.8622 25.1742 13.8777 24.9048 13.8715C24.3399 12.1242 23.829 11.5618 22.3035 10.6886C19.4981 9.08374 15.6387 9.08993 12.454 9.28189C9.28998 9.47287 5.85552 10.3398 5.05752 13.8715C4.42742 13.8828 4.35177 13.7961 4.31445 13.7972C5.84619 7.60071 13.1701 9.03831 13.5318 8.50475C13.7052 7.3695 13.8786 6.23459 14.052 5.10001C13.994 4.86986 11.2135 3.85019 10.8933 3.58288C9.98126 2.82122 10.6031 1.33403 12.0084 1.51051C12.2985 1.54664 16.104 3.41466 16.3942 3.6572C17.757 4.79865 16.302 7.1311 16.617 8.61725C20.836 8.79577 24.2446 9.51308 25.7225 13.8736V13.8715Z" fill="#2F2B2F"/>
<path d="M11.4874 2.25011C12.0356 2.06846 15.5126 4.03247 16.208 4.50825C16.4495 4.96029 15.808 7.87171 15.725 8.61685L14.2752 8.57969C14.4486 7.29653 14.622 6.01334 14.7954 4.73014C14.6379 4.12742 9.81886 2.80329 11.4874 2.25011Z" fill="#BCE2E6"/>
<path d="M22.3026 10.689C23.0695 11.6478 23.9722 12.5756 24.0862 13.8719C17.7996 13.7811 11.3411 13.7625 5.05664 13.8719C5.85463 10.3402 9.28811 9.4733 12.4531 9.28231C15.6378 9.09036 19.4972 9.08417 22.3026 10.689Z" fill="#C4A580"/>
<path d="M24.905 13.8713C24.6325 13.8652 24.3598 13.8754 24.0873 13.8713C23.9733 12.5751 23.0696 11.6473 22.3037 10.6885C23.8303 11.5616 24.3402 12.1241 24.905 13.8713Z" fill="#786656"/>
<path d="M3.12506 18.2397C3.46498 18.3016 3.54893 18.2377 3.57069 18.2397C8.8779 18.697 20.3762 18.0498 26.4659 18.314L26.7633 18.2026V16.6483C26.8597 16.3614 27.0483 16.1199 27.209 15.8711C27.4193 15.5461 28.6132 15.2293 26.9861 13.8721C29.0111 14.0847 28.7459 16.0549 26.9861 16.3521C26.9363 17.0181 26.887 17.6845 26.8379 18.3512C26.8027 18.4864 26.5529 18.3306 26.4659 18.795L24.0128 41.2247C23.5268 43.1918 21.851 44.9762 19.8125 45.3333C19.2342 45.4344 11.4159 45.4861 10.7433 45.4077C8.38043 45.13 6.44762 43.037 6.17195 40.7066C5.30556 33.3016 4.4205 25.8956 3.49608 18.4988C3.47016 18.4399 3.18724 18.4286 3.12402 18.2397H3.12506Z" fill="#2F2B2F"/>
<path d="M25.8703 18.5352C25.633 19.2885 25.0454 18.8664 24.3096 19.0532C24.3417 18.8644 24.3303 18.6518 24.3842 18.4609C24.6195 18.467 25.7926 18.3989 25.8714 18.5352H25.8703Z" fill="#A3712C"/>
<path d="M6.99023 41.3343C7.64939 41.1454 8.33856 41.3064 8.99766 41.3343C9.09614 41.3384 9.19664 41.3302 9.29511 41.3343C10.5853 41.3849 19.7944 41.452 20.3333 41.3343C20.4701 41.3044 20.8795 40.9855 20.9655 40.8534C21.5158 40.001 22.7988 27.8051 23.1211 25.678C23.4559 23.4684 23.9315 21.2577 24.3109 19.0532C25.0467 18.8664 25.6342 19.2886 25.8716 18.5352C25.0543 25.9501 24.2365 33.3651 23.4185 40.7801C23.0113 42.8071 21.1386 44.574 19.07 44.8144C18.67 44.8609 11.5108 44.8609 11.116 44.8144C9.27021 44.5977 7.53329 43.1043 6.99023 41.3354V41.3343Z" fill="#BA8432"/>
<path d="M23.8272 31.712C24.2729 31.7223 23.6562 32.2817 23.7899 32.5635C23.8107 32.6078 24.619 32.9938 23.9019 33.193C22.9432 33.4593 23.2158 31.6975 23.8272 31.712Z" fill="#352626"/>
<path d="M9.29397 41.3345C9.19557 41.3303 9.09499 41.3386 8.99659 41.3345C7.93429 40.7483 8.99449 39.0928 9.99979 39.2621C11.1906 39.4613 9.85879 41.1208 9.29397 41.3345Z" fill="#FAD293"/>
<path d="M8.92285 40.7434C9.29073 40.4121 9.8452 39.9993 9.8887 39.4854C11.0868 39.5689 9.35913 41.567 8.92285 40.7434Z" fill="#42261D"/>
<path d="M9.88913 39.4841C9.84563 39.9991 9.29018 40.4108 8.92328 40.7421C8.62583 40.1827 9.29948 39.4427 9.88913 39.4841Z" fill="#995526"/>
<path d="M24.385 18.461C24.3311 18.6508 24.3435 18.8645 24.3104 19.0533C23.9311 21.2588 23.4564 23.4695 23.1206 25.6781C22.7983 27.8052 21.5153 40.001 20.965 40.8535C20.88 40.9856 20.4696 41.3045 20.3328 41.3345C19.7939 41.4521 10.5839 41.385 9.29461 41.3345C9.86049 41.1208 11.1911 39.4612 10.0004 39.2621C8.99506 39.0938 7.93388 40.7482 8.99716 41.3345C8.33806 41.3066 7.64993 41.1456 6.98975 41.3345C6.05599 33.724 4.9616 26.1302 4.23926 18.4981C10.9455 18.5672 17.6808 18.2783 24.3839 18.461H24.385Z" fill="#E1A146"/>
<path d="M11.6361 25.4934C12.8684 25.287 12.8093 27.445 12.0082 27.6401C10.692 27.96 10.6485 25.6586 11.6361 25.4934Z" fill="#FAD293"/>
<path d="M12.1192 27.2702C11.4372 27.5747 11.7544 26.6344 11.8218 25.7159C12.5265 25.6746 12.6581 26.8243 12.1192 27.2702Z" fill="#5B3020"/>
<path d="M11.8222 25.7158C11.7549 26.6354 11.4378 27.5746 12.1197 27.2701C11.1465 28.0761 10.8429 25.7725 11.8222 25.7158Z" fill="#6A3A20"/>
<path d="M6.58098 21.4969C8.20602 21.1223 7.70442 24.1699 6.28355 23.496C5.56535 23.1554 5.9571 21.6414 6.58098 21.4969Z" fill="#FAD293"/>
<path d="M6.17277 22.384C6.52617 23.7257 7.00911 22.4511 6.6184 21.7916C7.5045 21.3179 7.63193 22.6193 7.21327 23.0869C6.76971 23.5822 6.03701 23.3542 6.17277 22.384Z" fill="#42261D"/>
<path d="M6.61849 21.793C7.0092 22.4525 6.52625 23.726 6.17285 22.3853C6.21949 22.0489 6.34903 21.9375 6.61849 21.793Z" fill="#A76232"/>
<path d="M16.6904 31.4156C18.188 31.1101 18.1331 34.0876 16.6159 33.4147C15.938 33.1133 15.9806 31.5611 16.6904 31.4156Z" fill="#FAD293"/>
<path d="M17.2486 31.712C16.8226 32.1517 17.661 33.2994 16.5055 32.8968C16.1852 32.29 16.3894 31.3395 17.2486 31.712Z" fill="#6A3A20"/>
<path d="M16.5049 32.8967C17.6604 33.3002 16.823 32.1516 17.2479 31.7119C18.2594 32.1505 17.1847 34.1827 16.5049 32.8967Z" fill="#5B3020"/>
<path d="M19.366 29.8614C21.1227 29.6034 20.4946 31.7491 18.994 31.4157C18.1504 31.2289 18.4385 29.9977 19.366 29.8614Z" fill="#FAD293"/>
<path d="M19.4034 30.0828C20.5341 29.9187 20.5144 30.7939 19.8118 31.119C18.6272 31.668 18.3733 30.3222 19.3288 30.0828C18.4272 30.9436 20.2045 30.7072 19.4034 30.0828Z" fill="#42261D"/>
<path d="M19.3287 30.0832C19.3515 30.077 19.3795 30.0863 19.4033 30.0832C20.2045 30.7076 18.4271 30.9439 19.3287 30.0832Z" fill="#DB7644"/>
<path d="M18.9954 21.1999C20.2007 20.8191 20.6971 23.3095 19.2929 22.8285C18.6089 22.5943 18.4742 21.3651 18.9954 21.1999Z" fill="#FAD293"/>
<path d="M19.0694 21.4221C19.9368 21.0444 20.3586 23.0291 19.3668 22.607C18.9284 22.4202 18.7356 21.5677 19.0694 21.4221Z" fill="#42261D"/>
<path d="M17.6564 24.8269C19.0005 24.4048 19.0295 27.2615 17.731 26.6774C17.0822 26.3853 17.1403 24.989 17.6564 24.8269Z" fill="#FAD293"/>
<path d="M17.8806 24.9756C18.6092 24.8858 18.7263 26.376 18.2527 26.5299C17.3915 26.8096 17.2101 25.0581 17.8806 24.9756Z" fill="#5B3020"/>
<path d="M22.3397 22.6069C23.5947 22.4727 23.6134 24.2334 22.2651 23.9393C21.5365 23.7804 21.5282 22.6936 22.3397 22.6069Z" fill="#FAD293"/>
<path d="M22.2654 22.8287C23.0551 22.6171 23.4894 23.4293 22.8603 23.7173C22.0934 24.0672 21.5576 23.0196 22.2654 22.8287Z" fill="#42261D"/>
<path d="M8.14234 29.9358C9.86269 29.6519 8.53519 32.5252 7.39931 32.1567C6.5754 31.8894 7.30604 30.074 8.14234 29.9358Z" fill="#FAD293"/>
<path d="M8.14314 30.1573C9.57542 29.8394 8.38569 32.1254 7.62287 31.9335C7.01871 31.7818 7.48921 30.3018 8.14314 30.1573Z" fill="#42261D"/>
<path d="M8.14309 30.3047C8.41774 30.3666 7.93789 31.1685 7.88299 31.2304C6.99171 32.2336 7.67989 30.2005 8.14309 30.3047Z" fill="#995526"/>
<path d="M18.846 39.1884C20.3052 38.9273 20.6171 41.522 19.0688 40.9647C18.388 40.72 17.992 39.3402 18.846 39.1884Z" fill="#FAD293"/>
<path d="M18.8462 39.4095C19.6504 39.1463 20.2919 40.3807 19.7385 40.7419C19.0566 41.1867 18.0783 39.6603 18.8462 39.4095Z" fill="#5B3020"/>
<path d="M19.2185 39.5589C19.488 39.5103 19.7263 40.0233 19.4413 40.1512C19.1128 40.2978 18.8341 39.629 19.2185 39.5589Z" fill="#995526"/>
<path d="M17.8802 35.6346C19.5528 35.2176 19.8627 37.3333 18.2522 37.2631C17.1941 37.2167 16.9868 35.8575 17.8802 35.6346Z" fill="#FAD293"/>
<path d="M18.0283 35.7836C19.1725 35.569 19.6441 36.9313 18.474 37.0417C17.3785 37.1449 17.2045 35.9374 18.0283 35.7836Z" fill="#42261D"/>
<path d="M18.178 35.8579C18.7739 35.7712 18.7667 36.6133 18.0298 36.376C17.7365 36.282 17.9407 35.8929 18.178 35.8579Z" fill="#CD7A3C"/>
<path d="M11.1164 33.4884C12.4015 33.2593 12.7289 34.5277 11.8594 34.9694C10.3288 35.7465 9.78885 33.7258 11.1164 33.4884Z" fill="#FAD293"/>
<path d="M11.2646 33.6362C12.1341 33.5237 12.4761 34.367 11.8595 34.7468C10.6034 35.5197 10.0272 33.7962 11.2646 33.6362Z" fill="#5B3020"/>
<path d="M11.2644 33.8586C11.8935 33.7202 11.6634 34.355 11.3391 34.3766C11.0085 34.3983 10.8405 33.9514 11.2644 33.8586Z" fill="#CD7A3C"/>
<path d="M15.7244 23.1987C17.3121 22.9148 16.6416 25.0708 15.3523 24.753C14.5813 24.563 15.0155 23.3256 15.7244 23.1987Z" fill="#FAD293"/>
<path d="M15.9479 23.3467C17.0651 23.2826 16.3127 24.8369 15.4277 24.5314C14.8764 24.3416 15.3645 23.3807 15.9479 23.3467Z" fill="#42261D"/>
<path d="M15.6498 23.5686C15.9368 23.5304 15.7752 24.0124 15.5016 23.939C15.2695 23.8771 15.6146 23.5737 15.6498 23.5686Z" fill="#CC5C45"/>
</svg>
