<svg width="38" height="38" viewBox="0 0 38 38" fill="none" xmlns="http://www.w3.org/2000/svg">
<path d="M1.5 12.1992C0.705729 12.1992 0.308594 11.7891 0.308594 10.9688V5.94922C0.308594 4.0612 0.790365 2.64193 1.75391 1.69141C2.71745 0.740885 4.14974 0.265625 6.05078 0.265625H11.0703C11.8906 0.265625 12.3008 0.66276 12.3008 1.45703C12.3008 2.26432 11.8906 2.66797 11.0703 2.66797H6.10938C5.0026 2.66797 4.15625 2.95443 3.57031 3.52734C2.9974 4.10026 2.71094 4.95312 2.71094 6.08594V10.9688C2.71094 11.7891 2.30729 12.1992 1.5 12.1992ZM36.4609 12.1992C35.6667 12.1992 35.2695 11.7891 35.2695 10.9688V6.08594C35.2695 4.95312 34.9701 4.10026 34.3711 3.52734C33.7721 2.95443 32.9323 2.66797 31.8516 2.66797H26.9102C26.0898 2.66797 25.6797 2.26432 25.6797 1.45703C25.6797 0.66276 26.0898 0.265625 26.9102 0.265625H31.9102C33.8242 0.265625 35.263 0.747396 36.2266 1.71094C37.1901 2.66146 37.6719 4.07422 37.6719 5.94922V10.9688C37.6719 11.7891 37.2682 12.1992 36.4609 12.1992ZM6.05078 37.6094C4.14974 37.6094 2.71745 37.1276 1.75391 36.1641C0.790365 35.2135 0.308594 33.7943 0.308594 31.9062V26.9062C0.308594 26.0859 0.705729 25.6758 1.5 25.6758C2.30729 25.6758 2.71094 26.0859 2.71094 26.9062V31.7891C2.71094 32.9219 2.9974 33.7747 3.57031 34.3477C4.15625 34.9206 5.0026 35.207 6.10938 35.207H11.0703C11.8906 35.207 12.3008 35.6107 12.3008 36.418C12.3008 37.2122 11.8906 37.6094 11.0703 37.6094H6.05078ZM26.9102 37.6094C26.0898 37.6094 25.6797 37.2122 25.6797 36.418C25.6797 35.6107 26.0898 35.207 26.9102 35.207H31.8516C32.9323 35.207 33.7721 34.9206 34.3711 34.3477C34.9701 33.7747 35.2695 32.9219 35.2695 31.7891V26.9062C35.2695 26.0859 35.6667 25.6758 36.4609 25.6758C37.2682 25.6758 37.6719 26.0859 37.6719 26.9062V31.9062C37.6719 33.7943 37.1901 35.2135 36.2266 36.1641C35.263 37.1276 33.8242 37.6094 31.9102 37.6094H26.9102ZM11.7344 17.375C11.3568 17.375 11.0443 17.2578 10.7969 17.0234C10.5625 16.7891 10.4453 16.4701 10.4453 16.0664V13.4297C10.4453 13.0391 10.5625 12.7266 10.7969 12.4922C11.0443 12.2448 11.3568 12.1211 11.7344 12.1211C12.112 12.1211 12.4245 12.2448 12.6719 12.4922C12.9193 12.7266 13.043 13.0391 13.043 13.4297V16.0664C13.043 16.4701 12.9193 16.7891 12.6719 17.0234C12.4245 17.2578 12.112 17.375 11.7344 17.375ZM17.3984 21.9453C16.9948 21.9453 16.6823 21.8542 16.4609 21.6719C16.2396 21.4766 16.1289 21.2161 16.1289 20.8906C16.1289 20.6042 16.2201 20.3698 16.4023 20.1875C16.5977 19.9922 16.8385 19.8945 17.125 19.8945H17.7891C17.9323 19.8945 18.056 19.849 18.1602 19.7578C18.2773 19.6667 18.3359 19.5299 18.3359 19.3477V13.0977C18.3359 12.7852 18.4271 12.5443 18.6094 12.375C18.7917 12.1927 19.0326 12.1016 19.332 12.1016C19.6445 12.1016 19.8919 12.1927 20.0742 12.375C20.2565 12.5443 20.3477 12.7852 20.3477 13.0977V19.1719C20.3477 20.0833 20.1133 20.7734 19.6445 21.2422C19.1758 21.7109 18.4857 21.9453 17.5742 21.9453C17.5482 21.9453 17.5156 21.9453 17.4766 21.9453C17.4505 21.9453 17.4245 21.9453 17.3984 21.9453ZM26.1289 17.375C25.7383 17.375 25.4258 17.2578 25.1914 17.0234C24.957 16.7891 24.8398 16.4701 24.8398 16.0664V13.4297C24.8398 13.0391 24.957 12.7266 25.1914 12.4922C25.4258 12.2448 25.7383 12.1211 26.1289 12.1211C26.5065 12.1211 26.8125 12.2448 27.0469 12.4922C27.2943 12.7266 27.418 13.0391 27.418 13.4297V16.0664C27.418 16.4701 27.2943 16.7891 27.0469 17.0234C26.8125 17.2578 26.5065 17.375 26.1289 17.375ZM18.8438 28.2539C17.7109 28.2539 16.5911 28.0326 15.4844 27.5898C14.3776 27.1341 13.4401 26.4766 12.6719 25.6172C12.5677 25.513 12.4831 25.4023 12.418 25.2852C12.3659 25.1549 12.3398 25.0182 12.3398 24.875C12.3398 24.5755 12.4375 24.3346 12.6328 24.1523C12.8281 23.9701 13.069 23.8789 13.3555 23.8789C13.5378 23.8789 13.6875 23.918 13.8047 23.9961C13.9349 24.0742 14.0716 24.1784 14.2148 24.3086C14.7878 24.8945 15.4909 25.3633 16.3242 25.7148C17.1576 26.0664 17.9974 26.2422 18.8438 26.2422C19.7422 26.2422 20.6016 26.0664 21.4219 25.7148C22.2552 25.3503 22.9518 24.8815 23.5117 24.3086C23.7852 24.0221 24.0651 23.8789 24.3516 23.8789C24.625 23.8789 24.8594 23.9701 25.0547 24.1523C25.25 24.3346 25.3477 24.5755 25.3477 24.875C25.3477 25.0443 25.3216 25.194 25.2695 25.3242C25.2174 25.4414 25.1458 25.5456 25.0547 25.6367C24.2214 26.457 23.2578 27.1016 22.1641 27.5703C21.0833 28.026 19.9766 28.2539 18.8438 28.2539Z" fill="#6E3D2C"/>
</svg>
